<svg width="512" height="512" viewBox="0 0 512 512" xmlns="http://www.w3.org/2000/svg">
  <defs>
    <linearGradient id="bg" x1="0" y1="0" x2="1" y2="1">
      <stop offset="0%" stop-color="#0b1220" />
      <stop offset="100%" stop-color="#0e1628" />
    </linearGradient>
  </defs>
  <rect x="0" y="0" width="512" height="512" fill="url(#bg)" rx="96" ry="96" />
  <!-- Lock mark -->
  <g transform="translate(156,120)">
    <path fill="#ef4444" d="M100 0c-33.137 0-60 26.863-60 60v24H24C10.745 84 0 94.745 0 108v164c0 13.255 10.745 24 24 24h152c13.255 0 24-10.745 24-24V108c0-13.255-10.745-24-24-24h-16V60c0-33.137-26.863-60-60-60Zm-36 84V60c0-19.882 16.118-36 36-36s36 16.118 36 36v24H64Z"/>
    <circle cx="100" cy="188" r="20" fill="#ef4444" />
  </g>
</svg>
